<?xml version="1.0" encoding="UTF-8" standalone="no"?>
<!-- Generator: Adobe Illustrator 16.0.0, SVG Export Plug-In . SVG Version: 6.00 Build 0)  -->

<svg
   xmlns:dc="http://purl.org/dc/elements/1.1/"
   xmlns:cc="http://creativecommons.org/ns#"
   xmlns:rdf="http://www.w3.org/1999/02/22-rdf-syntax-ns#"
   xmlns:svg="http://www.w3.org/2000/svg"
   xmlns="http://www.w3.org/2000/svg"
   xmlns:sodipodi="http://sodipodi.sourceforge.net/DTD/sodipodi-0.dtd"
   xmlns:inkscape="http://www.inkscape.org/namespaces/inkscape"
   version="1.1"
   id="Capa_1"
   x="0px"
   y="0px"
   width="470.171px"
   height="470.171px"
   viewBox="0 0 470.171 470.171"
   style="enable-background:new 0 0 470.171 470.171;"
   xml:space="preserve"
   sodipodi:docname="pair-of-shoes-outline.svg"
   inkscape:version="0.92.3 (2405546, 2018-03-11)"><metadata
   id="metadata3921"><rdf:RDF><cc:Work
       rdf:about=""><dc:format>image/svg+xml</dc:format><dc:type
         rdf:resource="http://purl.org/dc/dcmitype/StillImage" /></cc:Work></rdf:RDF></metadata><defs
   id="defs3919" /><sodipodi:namedview
   pagecolor="#ffffff"
   bordercolor="#666666"
   borderopacity="1"
   objecttolerance="10"
   gridtolerance="10"
   guidetolerance="10"
   inkscape:pageopacity="0"
   inkscape:pageshadow="2"
   inkscape:window-width="1920"
   inkscape:window-height="1001"
   id="namedview3917"
   showgrid="false"
   inkscape:zoom="2.4623255"
   inkscape:cx="182.89906"
   inkscape:cy="182.12622"
   inkscape:window-x="-9"
   inkscape:window-y="-9"
   inkscape:window-maximized="1"
   inkscape:current-layer="layer3" />
<g
   id="g3884"><g
   inkscape:groupmode="layer"
   id="layer3"
   inkscape:label="Fills"
   style="display:inline"><path
     class="top-fill" style="stroke-width:0.41141757"
     d="m 399.57971,211.83433 c -46.92006,-2.17186 -105.3431,-12.8042 -127.54614,-23.21198 -4.22403,-1.98003 -7.69454,-4.14693 -8.02773,-5.01231 -0.2713,-0.70468 9.00141,-71.30438 10.08107,-76.7542 7.57152,-38.219056 38.80465,-67.805901 78.03383,-73.920723 6.53553,-1.01872 20.64917,-1.018866 26.85377,-2.76e-4 21.72069,3.565808 38.56083,12.152652 53.42818,27.243188 7.35763,7.468071 12.81986,15.272813 17.48444,24.982754 3.12175,6.49833 4.35775,9.88217 6.15861,16.860567 2.46012,9.53308 3.47424,20.56199 2.69849,29.34684 -0.62795,7.1111 -9.47153,74.75393 -9.9157,75.84328 -1.528,3.74746 -23.5344,5.81315 -49.24882,4.62286 z"
     id="path4074"
     inkscape:connector-curvature="0" /><path
     class="top-fill" style="stroke-width:0.4135713"
     d="m 45.357396,265.06147 c -13.345698,-0.97583 -20.730603,-2.16668 -24.709121,-3.98445 l -2.20581,-1.00782 -4.099031,-36.89466 c -2.254467,-20.29206 -4.188488,-39.06145 -4.297825,-41.70975 -0.2327833,-5.6384 0.443731,-14.13351 1.613267,-20.25809 5.804129,-30.39482 26.721953,-56.38373 55.189439,-68.568977 12.126563,-5.190662 23.59868,-7.47699 37.465695,-7.466699 14.85207,0.01103 26.9884,2.802903 40.42159,9.298706 15.50573,7.49801 27.64126,18.08057 37.34003,32.56168 6.24224,9.3202 11.40853,21.78202 13.5953,32.79374 0.59966,3.01967 2.83641,21.3234 5.19135,42.48176 L 205,239.48296 l -1.14689,0.95161 c -2.12805,1.7657 -9.3867,5.01137 -16.26066,7.2709 -22.64725,7.44431 -60.62355,13.69935 -100.620429,16.57309 -8.235816,0.59174 -36.863368,1.13032 -41.614625,0.78291 z"
     id="path4076"
     inkscape:connector-curvature="0" /><path
     class="bottom-fill" style="stroke-width:0.42004326"
     d="M 116.17603,438.23305 C 97.620992,436.31284 79.851596,428.244 66.340903,415.6036 53.726341,403.80161 45.037163,388.45472 41.484465,371.70197 c -0.638278,-3.0098 -11.742163,-99.49196 -11.479892,-99.74929 0.071,-0.0697 1.730949,0.078 3.688777,0.32794 5.561185,0.71021 34.800165,0.98462 45.520591,0.42721 42.516259,-2.21065 88.368679,-9.2406 114.412199,-17.54133 2.81482,-0.89717 5.18293,-1.56736 5.26245,-1.48934 0.30366,0.29796 10.78222,93.92235 11.02082,98.46939 0.68177,12.99279 -2.50808,27.48027 -8.77823,39.86842 -4.46168,8.81511 -9.39589,15.54994 -16.51927,22.54764 -17.61132,17.30055 -43.49136,26.25189 -68.43588,23.67044 z"
     id="path4078"
     inkscape:connector-curvature="0" /><path
     class="bottom-fill" style="stroke-width:0.41687229"
     d="m 330.37535,384.1827 c -24.64154,-3.89872 -44.73363,-16.44511 -58.2668,-36.38439 -10.23178,-15.07515 -15.32464,-33.89468 -13.8617,-51.2229 0.4891,-5.79337 12.47992,-96.57962 12.79724,-96.89194 0.0906,-0.0892 1.43917,0.30982 2.99666,0.88683 19.66605,7.2857 59.84164,15.0397 97.51364,18.8204 21.63147,2.1709 48.04917,3.09493 60.47642,2.11532 3.21815,-0.25367 5.90362,-0.40961 5.9677,-0.34652 0.15468,0.15224 -11.80226,89.9334 -12.66167,95.07272 -4.91977,29.42072 -27.19256,54.85319 -56.44523,64.45273 -9.16533,3.0077 -14.09354,3.78419 -25.07004,3.95005 -7.0367,0.10633 -10.69272,-0.0167 -13.44622,-0.4523 z"
     id="path4080"
     inkscape:connector-curvature="0" /></g><g
   inkscape:groupmode="layer"
   id="layer2"
   inkscape:label="Lines"
   style="display:inline"><path
     d="M206.539,250.873c2.415-1.449,4.402-2.976,5.836-4.576c3.126-3.491,3.49-6.855,3.245-9.063l-7.818-70.457    c-5.867-52.866-50.344-92.732-103.458-92.732c-3.854,0-7.763,0.217-11.616,0.645C35.613,81.028-5.697,132.651,0.642,189.766    l7.819,70.459c0.709,6.394,6.728,9.668,11.861,11.39l10.493,94.551c5.311,47.85,45.975,83.357,93.042,83.357    c3.437,0,6.91-0.189,10.403-0.577c24.872-2.761,47.18-15.04,62.815-34.579c15.635-19.538,22.726-43.996,19.966-68.867    L206.539,250.873z M94.05,86.615c3.417-0.379,6.879-0.571,10.293-0.571c46.991,0,86.34,35.276,91.532,82.057l7.765,69.971    c-1.707,2.526-13.778,9.814-52.455,16.862c-29.696,5.409-64.849,8.771-91.739,8.771c-31.124,0-38.019-4.397-39.117-5.316    l-7.762-69.945C6.958,137.903,43.512,92.224,94.05,86.615z M187.704,406.869c-13.632,17.035-33.083,27.742-54.769,30.149    c-44.77,4.96-85.226-27.411-90.195-72.179l-10.055-90.603c7.247,0.974,16.209,1.466,26.76,1.466c0.001,0,0.003,0,0.005,0    c26.601,0,60.323-3.105,90.208-8.311c14.88-2.592,32.292-6.32,45.396-11.206l10.058,90.636    C207.52,368.507,201.337,389.833,187.704,406.869z"
     id="path3848"
     style="enable-background:new 0 0 470.17099999999999227 470.17099999999999227" /><path
     d="M448.586,61.391c-16.957-22.077-41.496-36.229-69.1-39.847c-4.533-0.595-9.135-0.896-13.676-0.896    c-52.059,0-96.428,38.982-103.207,90.676l-9.217,70.289c-0.293,2.236,0.02,5.657,3.174,9.254c1.395,1.589,3.312,3.113,5.635,4.575    l-12.379,94.386c-3.254,24.812,3.349,49.404,18.593,69.25c15.243,19.847,37.304,32.567,62.114,35.822    c4.115,0.539,8.201,0.802,12.244,0.802c46.285-0.001,86.65-34.407,92.828-81.51l12.375-94.376    c7.529-2.374,11.414-6.026,12.08-11.099l9.217-70.288C472.889,110.827,465.543,83.467,448.586,61.391z M423.697,312.63    c-5.387,41.072-40.576,71.072-80.938,71.069c-3.521,0-7.09-0.229-10.674-0.699c-21.635-2.837-40.869-13.93-54.16-31.232    c-13.291-17.304-19.049-38.747-16.211-60.38l11.857-90.4c13.83,5.472,32.666,9.765,48.723,12.771    c31.256,5.851,66.734,9.485,92.596,9.486c0.002,0,0.002,0,0.004,0c8.016,0,14.871-0.325,20.654-0.989L423.697,312.63z     M457.369,136.869l-9.148,69.778c-1.039,0.836-7.184,4.598-33.328,4.598c-26.5-0.001-62.582-3.834-94.168-10.005    c-41.029-8.015-53.656-15.876-55.375-18.549l9.153-69.807c6-45.742,45.255-80.236,91.31-80.236c4.021,0,8.098,0.268,12.115,0.795    c24.424,3.201,46.139,15.724,61.143,35.258C454.074,88.236,460.574,112.445,457.369,136.869z"
     id="path3850"
     style="enable-background:new 0 0 470.17099999999999227 470.17099999999999227" /></g>
	<g
   id="g3882">














		<g
   id="g4026" />

















	</g><g
   inkscape:groupmode="layer"
   id="layer1"
   inkscape:label="Dots"
   style="display:inline"><path
     id="path3818"
     d="m 51.607,121.612 c 1.16,0 2.325,-0.401 3.27,-1.22 4.231,-3.661 8.87,-6.849 13.788,-9.474 2.436,-1.301 3.357,-4.329 2.057,-6.766 -1.301,-2.437 -4.328,-3.358 -6.766,-2.057 -5.574,2.975 -10.83,6.587 -15.623,10.735 -2.088,1.807 -2.316,4.965 -0.509,7.053 0.989,1.144 2.383,1.729 3.783,1.729 z"
     inkscape:connector-curvature="0" /><path
     id="path3820"
     d="m 84.201,251.768 c 0.165,2.649 2.366,4.688 4.985,4.688 0.104,0 0.21,-0.003 0.316,-0.01 5.839,-0.363 11.906,-0.859 18.03,-1.477 2.748,-0.274 4.751,-2.727 4.476,-5.475 -0.276,-2.746 -2.732,-4.771 -5.475,-4.475 -6,0.604 -11.938,1.088 -17.653,1.443 -2.756,0.177 -4.851,2.549 -4.679,5.306 z"
     inkscape:connector-curvature="0" /><path
     id="path3822"
     d="m 28.097,220.587 c 2.745,-0.305 4.722,-2.776 4.418,-5.521 L 30.537,197.25 c -0.305,-2.744 -2.772,-4.715 -5.521,-4.418 -2.745,0.305 -4.722,2.776 -4.417,5.521 l 1.978,17.816 c 0.284,2.558 2.449,4.448 4.963,4.448 0.183,0 0.369,-0.01 0.557,-0.03 z"
     inkscape:connector-curvature="0" /><path
     id="path3824"
     d="m 82.892,104.92 c 0.435,0 0.878,-0.057 1.318,-0.177 3.779,-1.03 7.684,-1.773 11.607,-2.208 1.633,-0.182 3.292,-0.312 4.93,-0.387 2.758,-0.127 4.892,-2.466 4.765,-5.225 -0.127,-2.759 -2.473,-4.882 -5.224,-4.766 -1.853,0.086 -3.729,0.232 -5.574,0.438 -4.436,0.492 -8.855,1.333 -13.134,2.499 -2.664,0.727 -4.235,3.475 -3.509,6.139 0.606,2.225 2.621,3.687 4.821,3.687 z"
     inkscape:connector-curvature="0" /><path
     id="path3826"
     d="m 28.535,149.714 c 0.655,0.288 1.337,0.424 2.01,0.424 1.923,0 3.756,-1.115 4.58,-2.988 2.245,-5.106 5.067,-9.977 8.388,-14.475 1.64,-2.222 1.169,-5.352 -1.053,-6.992 -2.22,-1.641 -5.351,-1.169 -6.992,1.053 -3.76,5.092 -6.955,10.606 -9.498,16.389 -1.112,2.528 0.037,5.478 2.565,6.589 z"
     inkscape:connector-curvature="0" /><path
     id="path3828"
     d="m 23.83,184.949 c 0.055,0 0.11,-0.001 0.166,-0.003 2.76,-0.09 4.925,-2.399 4.835,-5.16 -0.027,-0.83 -0.041,-1.657 -0.041,-2.482 0,-4.761 0.455,-9.535 1.353,-14.191 0.523,-2.711 -1.251,-5.333 -3.963,-5.855 -2.712,-0.534 -5.333,1.251 -5.856,3.963 -1.018,5.277 -1.534,10.689 -1.534,16.084 0,0.933 0.015,1.869 0.045,2.809 0.088,2.702 2.308,4.835 4.995,4.835 z"
     inkscape:connector-curvature="0" /><path
     id="path3830"
     d="m 175.416,231.703 c -4.43,1.668 -10.004,3.314 -16.568,4.896 -2.685,0.646 -4.337,3.348 -3.69,6.031 0.552,2.291 2.6,3.83 4.857,3.83 0.387,0 0.781,-0.045 1.175,-0.14 6.963,-1.678 12.935,-3.446 17.749,-5.259 2.584,-0.973 3.891,-3.855 2.918,-6.441 -0.974,-2.583 -3.858,-3.889 -6.441,-2.917 z"
     inkscape:connector-curvature="0" /><path
     id="path3832"
     d="m 187.83,203.391 c -2.745,0.306 -4.722,2.777 -4.417,5.521 l 1.977,17.808 c 0.284,2.557 2.449,4.448 4.963,4.448 0.185,0 0.371,-0.01 0.558,-0.03 2.745,-0.305 4.723,-2.776 4.418,-5.521 l -1.978,-17.808 c -0.304,-2.745 -2.773,-4.714 -5.521,-4.418 z"
     inkscape:connector-curvature="0" /><path
     id="path3834"
     d="m 183.877,167.779 c -2.745,0.305 -4.723,2.777 -4.417,5.521 l 1.977,17.81 c 0.284,2.558 2.449,4.448 4.963,4.448 0.184,0 0.371,-0.01 0.558,-0.03 2.745,-0.305 4.722,-2.776 4.418,-5.521 l -1.978,-17.81 c -0.304,-2.745 -2.775,-4.714 -5.521,-4.418 z"
     inkscape:connector-curvature="0" /><path
     id="path3836"
     d="m 37.699,243.99 c -1.242,-0.486 -1.843,-0.896 -2.098,-1.105 l -1.11,-10.001 c -0.305,-2.745 -2.776,-4.72 -5.521,-4.418 -2.745,0.305 -4.722,2.776 -4.418,5.521 l 1.16,10.456 c 0.43,3.877 3.235,6.856 8.335,8.858 0.6,0.233 1.217,0.346 1.824,0.346 1.997,0 3.883,-1.204 4.656,-3.176 C 41.537,247.9 40.27,245 37.699,243.99 Z"
     inkscape:connector-curvature="0" /><path
     id="path3838"
     d="m 119.855,248.566 c 0.344,2.505 2.488,4.32 4.947,4.32 0.227,0 0.456,-0.017 0.687,-0.049 6.17,-0.848 12.188,-1.795 17.886,-2.818 2.718,-0.487 4.525,-3.087 4.038,-5.805 -0.488,-2.717 -3.083,-4.525 -5.805,-4.037 -5.563,0.998 -11.445,1.926 -17.48,2.755 -2.735,0.376 -4.649,2.898 -4.273,5.634 z"
     inkscape:connector-curvature="0" /><path
     id="path3840"
     d="m 176.516,156.528 c 0.63,2.193 2.63,3.621 4.804,3.621 0.457,0 0.921,-0.063 1.382,-0.195 2.654,-0.762 4.188,-3.531 3.427,-6.186 -1.748,-6.088 -4.182,-11.985 -7.236,-17.527 -1.333,-2.419 -4.373,-3.299 -6.792,-1.966 -2.418,1.332 -3.299,4.373 -1.966,6.792 2.693,4.888 4.84,10.09 6.381,15.461 z"
     inkscape:connector-curvature="0" /><path
     id="path3842"
     d="m 117.436,103.238 c 5.49,0.983 10.882,2.587 16.027,4.769 0.637,0.27 1.298,0.397 1.949,0.397 1.947,0 3.798,-1.144 4.606,-3.049 1.078,-2.543 -0.109,-5.478 -2.652,-6.556 -5.831,-2.472 -11.943,-4.291 -18.167,-5.405 -2.719,-0.494 -5.316,1.322 -5.803,4.041 -0.486,2.718 1.322,5.316 4.04,5.803 z"
     inkscape:connector-curvature="0" /><path
     id="path3844"
     d="m 148.046,116.203 c 4.54,3.26 8.722,7.029 12.432,11.203 0.988,1.112 2.36,1.679 3.739,1.679 1.181,0 2.367,-0.416 3.319,-1.263 2.064,-1.834 2.25,-4.995 0.416,-7.059 -4.199,-4.726 -8.934,-8.992 -14.073,-12.684 -2.243,-1.609 -5.367,-1.097 -6.978,1.146 -1.61,2.242 -1.098,5.366 1.145,6.978 z"
     inkscape:connector-curvature="0" /><path
     id="path3846"
     d="m 53.776,246.755 c -2.762,-0.207 -5.145,1.883 -5.337,4.638 -0.192,2.755 1.883,5.145 4.638,5.337 4.298,0.302 9.151,0.455 14.426,0.456 1.271,0 2.562,-0.009 3.87,-0.026 2.761,-0.037 4.969,-2.308 4.931,-5.068 -0.038,-2.737 -2.269,-4.932 -4.998,-4.932 -0.023,0 -0.046,0 -0.07,0 -6.463,0.088 -12.406,-0.053 -17.46,-0.405 z"
     inkscape:connector-curvature="0" /><path
     d="m 422.277,193.758 c -4.445,0.529 -9.895,0.798 -16.207,0.798 l -1.025,-0.002 c -0.012,0 -0.02,0 -0.029,0 -2.748,0 -4.984,2.221 -4.998,4.973 -0.016,2.762 2.211,5.013 4.973,5.027 l 1.096,0.002 c 6.691,0 12.539,-0.292 17.375,-0.868 2.742,-0.326 4.699,-2.814 4.375,-5.556 -0.329,-2.743 -2.819,-4.707 -5.56,-4.374 z"
     id="path3852"
     inkscape:connector-curvature="0" /><path
     d="m 441.137,169.221 c -2.736,-0.366 -5.248,1.568 -5.607,4.307 l -2.33,17.767 c -0.357,2.738 1.57,5.248 4.311,5.607 0.221,0.028 0.438,0.043 0.654,0.043 2.473,0 4.621,-1.834 4.951,-4.352 l 2.33,-17.765 c 0.357,-2.738 -1.571,-5.248 -4.309,-5.607 z"
     id="path3854"
     inkscape:connector-curvature="0" /><path
     d="m 414.086,64.612 c 1.523,0 3.027,-0.693 4.01,-2.007 1.652,-2.212 1.199,-5.346 -1.012,-6.998 -5.074,-3.792 -10.576,-7.016 -16.354,-9.583 -2.523,-1.12 -5.479,0.016 -6.6,2.539 -1.121,2.523 0.016,5.479 2.539,6.6 5.096,2.265 9.949,5.108 14.426,8.454 0.901,0.672 1.95,0.995 2.991,0.995 z"
     id="path3856"
     inkscape:connector-curvature="0" /><path
     d="m 445.797,133.694 c -2.746,-0.35 -5.25,1.571 -5.609,4.308 l -2.33,17.768 c -0.357,2.738 1.568,5.249 4.309,5.607 0.221,0.029 0.438,0.044 0.654,0.044 2.475,0 4.621,-1.833 4.951,-4.351 l 2.332,-17.768 c 0.359,-2.738 -1.571,-5.249 -4.307,-5.608 z"
     id="path3858"
     inkscape:connector-curvature="0" /><path
     d="m 423.857,68.005 c -2.1,1.794 -2.348,4.95 -0.555,7.05 3.633,4.25 6.795,8.908 9.4,13.846 0.896,1.698 2.631,2.667 4.426,2.667 0.787,0 1.586,-0.187 2.33,-0.579 2.441,-1.289 3.377,-4.313 2.088,-6.756 -2.949,-5.59 -6.529,-10.863 -10.641,-15.674 -1.794,-2.099 -4.948,-2.346 -7.048,-0.554 z"
     id="path3860"
     inkscape:connector-curvature="0" /><path
     d="m 438.822,104.472 c 1.449,5.386 2.293,10.949 2.51,16.534 0.104,2.694 2.32,4.808 4.992,4.808 0.064,0 0.131,-10e-4 0.195,-0.004 2.76,-0.106 4.91,-2.43 4.805,-5.188 -0.244,-6.333 -1.203,-12.641 -2.846,-18.749 -0.719,-2.666 -3.457,-4.247 -6.129,-3.528 -2.665,0.717 -4.245,3.46 -3.527,6.127 z"
     id="path3862"
     inkscape:connector-curvature="0" /><path
     d="m 387.441,193.914 c -5.648,-0.358 -11.582,-0.862 -17.635,-1.497 -2.762,-0.289 -5.205,1.706 -5.494,4.451 -0.287,2.746 1.705,5.206 4.451,5.494 6.188,0.649 12.258,1.164 18.043,1.532 0.107,0.007 0.215,0.01 0.322,0.01 2.615,0 4.814,-2.035 4.984,-4.683 0.177,-2.756 -1.915,-5.132 -4.671,-5.307 z"
     id="path3864"
     inkscape:connector-curvature="0" /><path
     d="m 352.219,190.248 c -5.953,-0.844 -11.836,-1.789 -17.486,-2.811 -2.721,-0.501 -5.318,1.313 -5.811,4.03 -0.49,2.718 1.312,5.318 4.029,5.81 5.775,1.045 11.787,2.011 17.865,2.871 0.236,0.034 0.475,0.051 0.707,0.051 2.451,0 4.59,-1.804 4.943,-4.3 0.389,-2.734 -1.513,-5.265 -4.247,-5.651 z"
     id="path3866"
     inkscape:connector-curvature="0" /><path
     d="m 285.609,172.794 c -1.057,-0.753 -1.531,-1.283 -1.728,-1.543 l 1.308,-9.976 c 0.358,-2.737 -1.569,-5.248 -4.309,-5.607 -2.734,-0.354 -5.249,1.571 -5.607,4.309 l -1.365,10.435 c -0.049,0.362 -0.071,0.73 -0.071,1.095 0,3.438 2.011,6.613 5.976,9.435 0.879,0.626 1.892,0.927 2.896,0.927 1.563,0 3.103,-0.729 4.077,-2.101 1.599,-2.252 1.073,-5.374 -1.177,-6.974 z"
     id="path3868"
     inkscape:connector-curvature="0" /><path
     d="m 299.246,79.091 c 0.908,0.697 1.98,1.034 3.043,1.034 1.502,0 2.984,-0.673 3.971,-1.954 3.395,-4.424 7.299,-8.479 11.598,-12.056 2.123,-1.766 2.412,-4.918 0.646,-7.041 -1.768,-2.124 -4.92,-2.414 -7.041,-0.646 -4.867,4.049 -9.287,8.642 -13.137,13.651 -1.681,2.191 -1.269,5.33 0.92,7.012 z"
     id="path3870"
     inkscape:connector-curvature="0" /><path
     d="m 285.543,120.12 c -2.738,-0.354 -5.248,1.57 -5.607,4.308 l -2.33,17.773 c -0.359,2.738 1.567,5.249 4.307,5.607 0.221,0.029 0.439,0.044 0.656,0.044 2.473,0 4.621,-1.833 4.951,-4.351 l 2.332,-17.773 c 0.357,-2.738 -1.571,-5.249 -4.309,-5.608 z"
     id="path3872"
     inkscape:connector-curvature="0" /><path
     d="m 317.432,183.896 c -6.348,-1.47 -12.023,-3.006 -16.873,-4.567 -2.631,-0.846 -5.445,0.599 -6.293,3.229 -0.846,2.629 0.6,5.445 3.229,6.292 5.113,1.646 11.062,3.258 17.682,4.79 0.381,0.088 0.76,0.13 1.133,0.13 2.275,0 4.332,-1.563 4.867,-3.873 0.62,-2.692 -1.056,-5.378 -3.745,-6.001 z"
     id="path3874"
     inkscape:connector-curvature="0" /><path
     d="m 331.824,56.898 c 4.982,-2.547 10.246,-4.536 15.648,-5.911 2.676,-0.682 4.293,-3.403 3.611,-6.08 -0.682,-2.677 -3.406,-4.29 -6.08,-3.611 -6.121,1.56 -12.088,3.813 -17.73,6.698 -2.459,1.257 -3.434,4.271 -2.178,6.728 0.885,1.73 2.639,2.726 4.457,2.726 0.766,-10e-4 1.544,-0.178 2.272,-0.55 z"
     id="path3876"
     inkscape:connector-curvature="0" /><path
     d="m 295.16,85.853 c -2.508,-1.152 -5.479,-0.058 -6.633,2.451 -2.639,5.732 -4.641,11.785 -5.951,17.991 -0.571,2.701 1.156,5.354 3.857,5.925 0.35,0.074 0.695,0.109 1.039,0.109 2.312,0 4.389,-1.614 4.887,-3.968 1.158,-5.478 2.924,-10.819 5.252,-15.876 1.155,-2.508 0.057,-5.478 -2.451,-6.632 z"
     id="path3878"
     inkscape:connector-curvature="0" /><path
     d="m 375.848,49.321 c 1.623,0.212 3.264,0.481 4.877,0.8 0.326,0.064 0.652,0.096 0.975,0.096 2.338,0 4.43,-1.65 4.898,-4.032 0.535,-2.709 -1.229,-5.339 -3.938,-5.874 -1.822,-0.36 -3.68,-0.664 -5.516,-0.905 -4.43,-0.58 -8.936,-0.822 -13.359,-0.704 -2.762,0.071 -4.939,2.367 -4.867,5.128 0.07,2.76 2.402,4.947 5.127,4.868 3.908,-0.099 7.885,0.109 11.803,0.623 z"
     id="path3880"
     inkscape:connector-curvature="0" /></g>
</g>
<g
   id="g3886">
</g>
<g
   id="g3888">
</g>
<g
   id="g3890">
</g>
<g
   id="g3892">
</g>
<g
   id="g3894">
</g>
<g
   id="g3896">
</g>
<g
   id="g3898">
</g>
<g
   id="g3900">
</g>
<g
   id="g3902">
</g>
<g
   id="g3904">
</g>
<g
   id="g3906">
</g>
<g
   id="g3908">
</g>
<g
   id="g3910">
</g>
<g
   id="g3912">
</g>
<g
   id="g3914">
</g>
</svg>
